<svg width="118" height="101" fill="none" xmlns="http://www.w3.org/2000/svg"><path d="M79.749 4.253s-16.045 20.323-41.715 8.2C12.363.332-13.308 33.134 8.797 53.1c22.106 19.966.474 30.938 15.492 43.174 17.068 13.908 31.928-14.294 45.477-7.876 29.902 14.164 52.054 8.556 47.063-7.844-8.762-28.79-19.966-30.663-11.41-45.637 8.557-14.975-10.328-46.111-25.67-30.663z" fill="#DEE9FF"/><path d="M71.014 60.46l-1.268 6.806-6.037 32.349-10.876-2.03 6.974-37.37.331-1.78 10.876 2.026z" fill="#699CFF"/><path d="M97.797 44.186l-3.75 20.105a.456.456 0 01-.532.365L40.83 54.829l6.201-33.247 40.007 7.462c7.25 1.352 12.067 8.13 10.76 15.142z" fill="#A2BDFF"/><path d="M58.284 37.44l-3.72 19.948-27.655-5.158 3.72-19.948c1.37-7.345 8.672-12.144 16.308-10.72 7.636 1.424 12.717 8.533 11.347 15.878z" fill="#699CFF"/><path d="M71.158 46.765c-2.037-.38-3.382-2.36-2.998-4.418.383-2.056 2.351-3.42 4.39-3.04a3.742 3.742 0 012.847 2.46l25.742 4.802-.695 3.729-25.742-4.802a3.743 3.743 0 01-3.544 1.269zm-13.791-8.959L53.74 57.242l-26.05-4.859 3.625-19.436c1.335-7.156 8.249-11.87 15.443-10.527 7.194 1.341 11.943 8.23 10.608 15.386z" fill="#418DF9"/><path d="M71.888 44.88a1.897 1.897 0 100-3.792 1.897 1.897 0 000 3.793z" fill="#fff"/><path d="M101.437 46.556l-2.274 12.192a.201.201 0 01-.235.16l-5.978-1.114a.04.04 0 01-.032-.047l2.304-12.35a.04.04 0 01.046-.032l6.137 1.144a.04.04 0 01.025.017c.006.009.008.02.007.03z" fill="#699CFF"/><path d="M36.311 45.408c.252 1.852 2.284 4.053 2.284 4.053-3.096.22-4.773-1.532-5.495-2.596-.892.258-1.809.42-2.735.486-6.356.45-11.828-3.7-12.223-9.274-.395-5.574 4.436-10.454 10.793-10.905 6.356-.45 11.828 3.7 12.223 9.274.257 3.626-1.7 6.958-4.847 8.962z" fill="#fff"/><path d="M54.59 57.4c-.288.729-5.551 22.433-22.585 19.256-18.679-3.162-5.168-24.432-5.168-24.432L54.59 57.4z" fill="#A2BDFF"/><path d="M29.65 39.175a1.58 1.58 0 100-3.161 1.58 1.58 0 000 3.16zm-7.076-.691a1.59 1.59 0 100-3.18 1.59 1.59 0 000 3.18zm14.083 1.364a1.59 1.59 0 100-3.18 1.59 1.59 0 000 3.18z" fill="#699CFF"/><path d="M71.014 60.46l-1.268 6.806-9.94-7.05.332-1.781 10.876 2.026z" fill="#418DF9"/></svg>