<svg width="150" height="150" fill="none" xmlns="http://www.w3.org/2000/svg"><path d="M51.3 42.708s14.66 11.124 36.946-9.676c19.792-18.473 35.953 10.673 36.066 24.63.147 18.08-19.792 32.548-10.116 44.423 9.676 11.876-19.19 31.486-34.747 14.515-19.352-21.112-24.595-3.959-35.626-3.959-7.917 0-24.171-19.672-13.195-34.307 9.236-12.315 4.2-16.402 1.76-20.672-3.52-6.157 4.838-22.871 18.912-14.954z" fill="#DEE9FF"/><path d="M109.087 93.637L55.265 110.16a3.515 3.515 0 01-4.394-2.331l-6.294-20.496-5.225-17.022-.101-.325.717-.827 23.39-26.97a.87.87 0 01.888-.273l34.51 9.206 1.042.277.321 1.038 11.299 36.8a3.523 3.523 0 01-2.331 4.399z" fill="#418DF9"/><path d="M100.119 52.436l-20.4 24.033v-1.32l19.037-24.028 1.042.277.321 1.038z" fill="#208AF2"/><path d="M109.15 93.613a.196.196 0 01-.123 0L76.083 81.381a.183.183 0 01-.11-.12.182.182 0 01.031-.161l5.507-6.87 18.077-22.568a.174.174 0 01.171-.065.176.176 0 01.137.122L111.34 89l.075.238a3.512 3.512 0 01-2.265 4.376z" fill="#A2BDFF"/><path d="M73.98 80.002l-.299.625-34.105-10.539a.179.179 0 00-.224.225l-.101-.326.717-.827L73.98 80.002z" fill="#208AF2"/><path d="M75.709 81.495l-20.404 28.611a.166.166 0 01-.102.071 3.52 3.52 0 01-4.332-2.349l-6.294-20.496-5.225-17.022a.18.18 0 01.224-.224l34.105 10.538 1.935.599a.179.179 0 01.093.272z" fill="#A2BDFF"/><path d="M109.086 93.638l-53.819 16.524a3.528 3.528 0 01-4.228-1.896.881.881 0 01.053-.83L72.54 72.498a.88.88 0 011.112-.342l37.359 16.882a.89.89 0 01.51.658 3.532 3.532 0 01-2.436 3.942z" fill="#699CFF"/><path d="M98.462 38.784a.189.189 0 01-.187-.178.187.187 0 01.02-.093c.16-.324.246-.502.246-.502a.188.188 0 11.338.162s-.087.18-.249.507a.187.187 0 01-.168.104zM79.528 65.493a.189.189 0 01-.17-.108.188.188 0 01.027-.2c.242-.289.472-.575.684-.851a.187.187 0 11.297.228c-.215.28-.448.571-.694.864a.187.187 0 01-.144.067zm1.335-1.749a.187.187 0 01-.155-.293c.215-.315.409-.624.577-.92a.187.187 0 01.256-.07.188.188 0 01.07.257c-.173.303-.373.62-.593.944a.187.187 0 01-.155.082zm-.038-1.787h-.004a2.577 2.577 0 01-1.097-.24.19.19 0 01-.097-.106.187.187 0 01.256-.234c.294.137.615.206.939.205h.05a.186.186 0 01.174.114.188.188 0 01-.17.26l-.051.001zm1.116-.127a.252.252 0 01-.104-.427 5.39 5.39 0 00.263-.845.187.187 0 11.366.08 5.273 5.273 0 01-.157.566c.17-.08.346-.173.524-.279a.188.188 0 01.272.208.187.187 0 01-.081.115 6.14 6.14 0 01-.9.443l-.01.024a.188.188 0 01-.173.114zm-3.039-.72a.187.187 0 01-.123-.047c-.3-.25-.552-.552-.746-.89a.189.189 0 01.015-.212.187.187 0 01.315.034c.173.3.397.565.663.786a.187.187 0 01-.124.329zm4.936-.455a.187.187 0 01-.114-.336c.269-.206.55-.44.833-.697a.187.187 0 01.302.076.19.19 0 01-.05.202c-.292.263-.58.504-.857.716a.186.186 0 01-.114.038v.001zm-1.497-.963a.188.188 0 01-.185-.16 1.61 1.61 0 00-.405-.883.187.187 0 01.275-.255c.275.3.45.68.5 1.084a.19.19 0 01-.089.188.188.188 0 01-.096.026zm-4.262-.48a.187.187 0 01-.176-.253c.13-.352.413-.659.819-.887a.188.188 0 11.184.327c-.327.184-.552.422-.65.69a.187.187 0 01-.177.123zm7.399-.027a.188.188 0 01-.133-.32c.244-.247.496-.515.75-.796a.188.188 0 01.326.116.188.188 0 01-.048.136c-.257.285-.513.556-.761.808a.187.187 0 01-.134.056zm-4.528-1.022a.194.194 0 01-.05-.006 2.707 2.707 0 00-1.02-.065.185.185 0 01-.139-.039.186.186 0 01-.064-.198.19.19 0 01.158-.135c.389-.05.784-.024 1.164.075a.188.188 0 01-.05.368zm6.007-.612a.187.187 0 01-.143-.308c.227-.27.46-.556.694-.85a.19.19 0 01.199-.066.186.186 0 01.136.16.186.186 0 01-.042.139c-.235.297-.471.586-.7.858a.188.188 0 01-.144.067zm1.372-1.726a.187.187 0 01-.15-.3c.215-.284.435-.581.654-.884a.187.187 0 11.304.22c-.221.305-.442.604-.658.89a.188.188 0 01-.15.074zm1.294-1.785a.188.188 0 01-.153-.295c.204-.292.413-.598.622-.906a.188.188 0 01.311.21c-.21.31-.42.617-.626.911a.188.188 0 01-.153.08zm1.235-1.827a.188.188 0 01-.157-.29c.199-.303.4-.614.599-.926a.188.188 0 11.316.202c-.2.313-.402.626-.601.93a.188.188 0 01-.157.084zm1.188-1.86a.188.188 0 01-.16-.287c.19-.305.385-.62.577-.937a.188.188 0 01.32.195c-.193.318-.388.635-.578.94a.187.187 0 01-.16.089zm1.146-1.884a.187.187 0 01-.161-.283c.19-.318.376-.634.56-.949a.187.187 0 11.323.19c-.184.315-.37.632-.56.95a.188.188 0 01-.162.092zm1.112-1.904a.188.188 0 01-.163-.28c.186-.324.367-.644.544-.959a.187.187 0 11.327.184c-.178.316-.36.636-.545.96a.187.187 0 01-.163.094zm1.081-1.922a.188.188 0 01-.164-.279c.183-.33.36-.652.53-.966a.188.188 0 01.33.18l-.531.968a.187.187 0 01-.164.096zm1.054-1.94a.188.188 0 01-.165-.275c.181-.339.353-.664.516-.974a.188.188 0 11.332.174c-.163.31-.336.636-.518.977a.187.187 0 01-.165.098zm1.027-1.953a.188.188 0 01-.167-.274c.187-.361.355-.69.503-.982a.189.189 0 01.181-.103.186.186 0 01.165.13.186.186 0 01-.012.143c-.148.292-.316.622-.504.984a.187.187 0 01-.166.101zM78.443 66.722a.187.187 0 01-.137-.315c.13-.14.255-.277.377-.413a.189.189 0 01.267-.016.189.189 0 01.012.267c-.123.137-.25.276-.381.417a.187.187 0 01-.138.06zm-7.851-12.07a.186.186 0 01-.159-.088.187.187 0 01-.009-.182c.153-.31.235-.499.236-.5a.188.188 0 01.344.149c-.003.008-.086.199-.244.517a.188.188 0 01-.168.104zm-9.075 9.002a.188.188 0 01-.138-.315c.268-.29.522-.578.756-.853a.188.188 0 11.285.244c-.237.278-.494.569-.765.863a.185.185 0 01-.138.06zM63 61.905a.187.187 0 01-.149-.302c.245-.32.467-.63.658-.921a.189.189 0 01.26-.054.187.187 0 01.053.26 15.29 15.29 0 01-.674.944.187.187 0 01-.148.073zm1.296-1.023a.188.188 0 01-.144-.308.188.188 0 01.121-.066 3.984 3.984 0 001.053-.286.188.188 0 01.145.346 4.367 4.367 0 01-1.175.314zm-1.14-.039a.193.193 0 01-.036-.003 4.354 4.354 0 01-1.129-.39.187.187 0 01.169-.336c.325.166.672.287 1.031.358a.188.188 0 01-.035.371zm3.245-.814a.186.186 0 01-.18-.132.187.187 0 01.073-.21c.308-.213.599-.447.872-.702a.19.19 0 01.135-.05.189.189 0 01.168.123.187.187 0 01-.048.203 8.132 8.132 0 01-.915.735.187.187 0 01-.106.033zm-2.162-.049a.187.187 0 01-.187-.178.188.188 0 01.019-.092c.166-.325.29-.672.368-1.03a.187.187 0 11.368.072c-.084.39-.218.768-.4 1.123a.187.187 0 01-.169.105zm-3.106-.156a.187.187 0 01-.132-.055c-.32-.319-.483-.66-.483-1.013 0-.056.004-.112.012-.168a.188.188 0 01.371.056.77.77 0 00-.008.112c0 .25.125.502.373.748a.187.187 0 01-.133.32zm6.958-1.337a.187.187 0 01-.14-.311c.237-.272.475-.569.708-.883a.187.187 0 01.301.223 14.37 14.37 0 01-.728.907.186.186 0 01-.141.064zm-6.741-.604a.187.187 0 01-.113-.338c.328-.24.696-.42 1.087-.53a.187.187 0 01.104.36 3.063 3.063 0 00-.965.47.187.187 0 01-.114.038zm3.135-.088a.187.187 0 01-.158-.086c-.2-.31-.566-.412-.838-.443a.188.188 0 11.042-.372c.506.058.89.27 1.111.612a.187.187 0 01-.157.29zm4.977-1.147a.187.187 0 01-.158-.29c.201-.312.399-.64.588-.973a.186.186 0 01.113-.089.187.187 0 01.232.131.187.187 0 01-.019.143c-.192.34-.394.673-.599.992a.188.188 0 01-.158.086zm-9.134 8.244a.187.187 0 01-.133-.32 36.5 36.5 0 00.394-.398.187.187 0 01.268.262l-.396.402a.186.186 0 01-.133.054z" fill="#fff"/></svg>